<?xml version="1.0" encoding="UTF-8" standalone="no"?>
<svg width="354px" height="385px" viewBox="0 0 354 385" version="1.1" xmlns="http://www.w3.org/2000/svg" xmlns:xlink="http://www.w3.org/1999/xlink">
    <defs></defs>
    <g id="Page-1" stroke="none" stroke-width="1" fill="none" fill-rule="evenodd">
        <g id="noun_52005_cc" transform="translate(-57.000000, 14.000000)">
            <g id="block-launcher-icon" transform="translate(70.767442, 0.000000)">
                <path d="M164.832558,356.805673 L0.520930233,275.090473 L0.520930233,86.0740364 L164.832558,167.789236 L326.102326,81.9640727 L326.102326,270.980509 L164.832558,356.805673 Z" id="Shape" stroke="#673AB7" stroke-width="27.9272727" stroke-linejoin="round"></path>
                <path d="M164.832558,167.789236 L0.520930233,86.0740364 L163.311628,0.248872727 L326.102326,81.9640727 L164.832558,167.789236 Z" id="Shape" stroke="#673AB7" stroke-width="27.9272727" stroke-linejoin="round"></path>
                <path d="M164.832558,356.805673 L164.832558,167.789236" id="Shape" stroke="#673AB7" stroke-width="27.9272727" stroke-linejoin="round"></path>
                <path d="M122.056558,241.555237 L112.808558,237.011599 L112.808558,242.020229 L122.056558,246.560899 L122.056558,297.023381 L40.5925581,257.289022 L40.5925581,150.669052 L122.056558,190.957466 L122.056558,241.555237 L122.056558,241.555237 Z M86.8325581,251.368066 L86.8325581,241.33413 L75.8165581,235.933897 L75.8165581,245.974904 L86.8325581,251.368066 L86.8325581,251.368066 Z M86.8325581,212.045886 L86.8325581,202.01195 L75.8165581,196.584002 L75.8165581,206.62501 L86.8325581,212.045886 L86.8325581,212.045886 Z" id="B" fill="#673AB7"></path>
                <path d="M242.200558,245.140885 L287.896558,221.482081 L287.896558,249.024199 L208.200558,290.894631 L208.200558,184.27643 L242.200558,167.396591 L242.200558,245.140885 Z" id="L" fill="#673AB7"></path>
                <path d="M213.197258,76.9401842 C209.540919,81.1882741 204.15192,83.8802509 198.146291,83.8907381 C194.42202,83.8972416 190.938492,82.8717136 187.960916,81.0816037 L124.965128,117.452236 C124.849888,117.51877 124.733461,117.581373 124.616002,117.640086 C119.901182,120.259457 113.94691,118.634753 111.249269,113.962302 C108.523799,109.24165 110.154579,103.197659 114.891717,100.46267 C115.025529,100.385414 115.160388,100.311624 115.29619,100.241274 L115.29619,100.241274 L178.280258,63.877405 C178.280263,63.8706125 178.280272,63.8638192 178.280284,63.8570251 C178.299677,52.7735179 187.225435,43.7730008 198.216522,43.7538077 C204.252211,43.743268 209.655599,46.4433198 213.297806,50.7155533 L198.57735,50.7489527 L190.966447,63.8784225 L198.517709,76.9734908 L213.197258,76.9401842 L213.197258,76.9401842 L213.197258,76.9401842 Z" id="wrench" fill="#673AB7"></path>
            </g>
        </g>
    </g>
</svg>