<svg xmlns="http://www.w3.org/2000/svg" xmlns:xlink="http://www.w3.org/1999/xlink" viewBox="0 0 1897 642" preserveAspectRatio="xMinYMin meet" stroke-linejoin="round"><defs><path id="a" d="M207.866.634l207.5 119.75v239.5l-207.5 119.75-207.5-119.75v-239.5z"/><mask id="b" fill="#fff"><use xlink:href="#a"/></mask></defs><path fill="#9E9E9E" stroke="#212121" stroke-width="15" d="M1673.21 616.843c-82.538 28.992-176.348 23.303-257.57-23.592-50.37-29.08-89.437-70.273-115.703-117.88H165.09c-2.075 0-4.136-.06-6.18-.184C74.773 473.79 7 405.116 7 320.606 7 235.215 76.18 166 161.518 166c2.41 0 4.808.055 7.192.164h1134.635l.16-.276c86.72-150.203 277.523-202.393 426.173-116.57 81.63 47.13 133.574 126.078 149.458 212.56l-199.15-114.84-205.247 118.5-.127 236.785 198.595 114.52z"/><g stroke="#212121" fill="#4CAF50" fill-rule="evenodd"><path stroke-width="15" d="M1340.514 274.142h-102.002v20.395h110.104a100.39 100.39 0 0 1 3.117 16.903v19.733a100.377 100.377 0 0 1-3.117 16.9h-110.104v20.395h102.003c-14.978 28.23-42.982 48.49-75.992 52.772h-113.81V221.37h113.784c33.026 4.273 61.037 24.536 76.017 52.772zm-1119.98-52.265v23.967h25.084v27.533h46.102v-27.533h25.086V221.37h84.746v199.87h-84.746v-84.894h-16.61V359.8h-63.052v-23.454h-16.61v84.392c-47.805-7.874-84.27-49.397-84.27-99.43 0-50.038 36.474-91.557 84.27-99.43zm907.13-.507v142.51H1011.39v57.36h-86.78V221.37h203.053zm-115.257 94.326h27.458v-47.163h-27.458v47.163zM873.083 221.37v18.1h24.068v163.67h-24.065v18.1h-187.12V221.37h187.12zM773.76 367.703h35.594v-92.796H773.76v92.796zM658.844 221.37v199.87H428.67V221.37h230.174zm-144.41 146.333h58.646v-92.796h-58.645v92.796z"/><path stroke-width="5" d="M1604.994 31.035l53.312 92.34-29.09 16.795-53.313-92.34 29.09-16.795zm-39.7 22.92l38.013 65.84-40.398 23.323 15.3 26.5-30.154 17.408-53.312-92.34 70.55-40.73zm-82.556 47.23l53.312 92.34-30.15 17.408-14.28-24.734-10.248 5.913 14.28 24.734-30.152 17.407-53.312-92.34 70.55-40.73z"/><path fill="#212121" stroke-width="2" d="M1550.41 120.654l9.54-5.508-12.58-21.79-9.54 5.508 12.58 21.79zm-82.524 24.902l9.166-5.292-5.5-9.526-9.527 5.5 5.192 8.993-9.526 5.5-5.19-8.99-9.525 5.5 5.5 9.526 9.166-5.292 2.888 5.003-5.418 3.128 8.974 15.546 4.004-2.312-2.925-5.064 13.074-7.548 2.923 5.064 4.004-2.314-8.976-15.546-5.416 3.13-2.888-5.004z"/></g><g transform="rotate(60 820 1589)" fill="none" fill-rule="evenodd"><g mask="url(#b)"><path fill="#B78471" d="M-29.634 5.366h474v474h-474z"/><path fill="#421B0E" d="M262.366 414.366h-110v-53h-60v118h230v-118h-60v53z"/><path fill="#6A3D2F" d="M152.366 308.366h110v53h-110z"/><path fill="#89473B" d="M152.366 361.366h110v53h-110z"/><path fill="#493682" d="M87.853 240.36h60.77v60.774h-60.77zm178.257 0h60.77v60.774h-60.77z"/><path fill="#F5F5F5" d="M27.084 240.36h60.77v60.774h-60.77V240.36zm299.795 0h60.766v60.774h-60.77V240.36z"/><path fill="#2B1D0E" d="M384.61 123.355H30.122v60.01h-59.756v-178h474v178H384.61v-60.01z"/></g><use stroke-width="15" stroke="#212121" xlink:href="#a"/></g></svg>