<?xml version="1.0" encoding="UTF-8" standalone="no"?>
<svg width="345px" height="375px" viewBox="0 0 345 375" version="1.1" xmlns="http://www.w3.org/2000/svg" xmlns:xlink="http://www.w3.org/1999/xlink">
    <defs></defs>
    <g id="Page-1" stroke="none" stroke-width="1" fill="none" fill-rule="evenodd">
        <g id="noun_52016_cc" transform="translate(-54.000000, 14.000000)">
            <g id="creeper-icon" transform="translate(67.941176, 0.000000)">
                <path d="M160.010529,347.321274 L0,267.770973 L0,83.7726726 L160.010529,163.318442 L317.058824,79.771823 L317.058824,263.774655 L160.010529,347.321274 Z" id="Shape" stroke="#673AB7" stroke-width="27.1858407" stroke-linejoin="round"></path>
                <path d="M160.010529,163.318442 L0,83.7726726 L158.529412,0.226053097 L317.058824,79.771823 L160.010529,163.318442 Z" id="Shape" stroke="#673AB7" stroke-width="27.1858407" stroke-linejoin="round"></path>
                <path d="M160.010529,347.321274 L160.010529,163.318442" id="Shape" stroke="#673AB7" stroke-width="27.1858407" stroke-linejoin="round"></path>
                <path d="M261.736949,201.732453 C263.51033,200.884581 265.496223,200.409831 267.593,200.409831 C275.100207,200.409831 281.186001,206.495625 281.186001,214.002832 L281.186001,243.002832 C281.186001,250.510039 275.100207,256.595832 267.593,256.595832 C260.085794,256.595832 254,250.510039 254,243.002832 L254,241.454763 C252.328938,242.188559 250.482001,242.595832 248.539941,242.595832 C247.737138,242.595832 246.95059,242.526237 246.186001,242.392751 L246.186001,263.002832 C246.186001,270.510039 240.100207,276.595832 232.593,276.595832 C225.085794,276.595832 219,270.510039 219,263.002832 L219,234.002832 C219,226.495625 225.085794,220.409831 232.593,220.409831 C233.395803,220.409831 234.182351,220.479426 234.946941,220.612913 L234.946941,205.002832 C234.946941,197.495625 241.032734,191.409831 248.539941,191.409831 C254.919695,191.409831 260.27292,195.804927 261.736949,201.732453 L261.736949,201.732453 Z" id="mouth" fill="#673AB7"></path>
                <path d="M219.59292,200 L219.59292,180 C219.59292,172.492837 213.507163,166.40708 206,166.40708 C198.492837,166.40708 192.40708,172.492837 192.40708,180 L192.40708,200 C192.40708,207.507163 198.492837,213.59292 206,213.59292 C213.507163,213.59292 219.59292,207.507163 219.59292,200 Z M284.59292,164 L284.59292,144 C284.59292,136.492837 278.507163,130.40708 271,130.40708 C263.492837,130.40708 257.40708,136.492837 257.40708,144 L257.40708,164 C257.40708,171.507163 263.492837,177.59292 271,177.59292 C278.507163,177.59292 284.59292,171.507163 284.59292,164 Z" id="eyes" fill="#673AB7"></path>
            </g>
        </g>
    </g>
</svg>