<svg xmlns="http://www.w3.org/2000/svg" xmlns:xlink="http://www.w3.org/1999/xlink" viewBox="0 0 1897 642" preserveAspectRatio="xMinYMin meet" stroke-linejoin="round">
  <defs>
    <path id="nut" d="M207.866025.6339746l207.5 119.7500004v239.5l-207.5 119.75-207.4999996-119.75v-239.5z"/>
    <mask id="facemask" fill="#fff"><use xlink:href="#nut"/></mask>
  </defs>
  <path id="wrench" fill="#9E9E9E" stroke="#212121" stroke-width="15" d="M1673.21026 616.843388c-82.53821 28.991123-176.34778 23.3022-257.5715-23.592333-50.36926-29.08071-89.43544-70.276051-115.70152-117.880741l-1134.846068-.000038c-2.075999 0-4.137381-.062625-6.182364-.186088C74.7744234 473.790557 7 405.115865 7 320.602891 7 235.218072 76.1799711 166 161.51779 166c2.41057 0 4.808248.05523 7.191838.164495H1303.34458c.05306-.092104.10617-.184193.15933-.276265 86.71965-150.20284123 277.52447-202.3929087 426.17449-116.5697786 81.63026 47.1292538 133.57337 126.0771306 149.45731 212.5588596l-199.14826-114.839277-205.24802 118.5-.12401 236.785208 198.59484 114.520146z"/>
  <g id="text" stroke="#212121" fill="#4CAF50" fill-rule="evenodd">
    <path id="modpe" stroke-width="15" d="M1340.514445 274.141792h-102.0029v20.394898h110.10422c1.50146 5.462876 2.55464 11.111329 3.11749 16.903305v19.732865c-.5628 5.791012-1.61583 11.438494-3.11704 16.900436h-110.10467v20.394897h102.00318c-14.97811 28.230003-42.98201 48.491238-75.99163 52.771801l-113.80922-.000004V221.369995h113.78329c33.0254 4.272637 61.03674 24.536479 76.01727 52.771783zM220.5331642 221.876505v23.967367h25.0850488v27.533112h46.102251v-27.533112h25.085048v-24.473877h84.746785V421.23999h-84.746785v-84.893761h-16.61037v23.454133h-63.051608v-23.454133h-16.6103698v84.391298c-47.8042372-7.873912-84.2698826-49.396282-84.2698826-99.430718 0-50.036454 36.4742615-91.555645 84.2698826-99.430304zm907.1295878-.50651v142.509346h-116.272589v57.360649h-86.780708V221.369995h203.053297zm-115.255627 94.326401h27.457958v-47.163201h-27.457958v47.163201zM873.08341 221.369995v18.100472h24.068087v163.669052H873.08341v18.100471H685.962508V221.369995H873.08341zm-99.323232 146.333389h35.593649v-92.796783h-35.593649v92.796783zM658.843537 221.369995V421.23999H428.671268V221.369995h230.172269zM514.435015 367.703384h58.644775v-92.796783h-58.644775v92.796783z"/>
    <path id="api-body" stroke-width="5" d="M1604.9940737 31.03526645l53.312 92.33909265-29.09152538 16.796-53.312-92.33909265 29.09152537-16.796zm-39.69860452 22.92l38.012 65.8387153-40.39835304 23.324 15.3 26.50037735-30.15154046 17.408-53.312-92.33909265 70.5498935-40.732zm-82.5574082 47.23037445l53.312 92.33909265-30.15154047 17.408-14.28-24.73368553-10.2468125 5.916 14.28 24.73368553-30.15154046 17.408-53.312-92.33909265 70.5498935-40.732z"/>
    <path id="api-inner" fill="#212121" stroke-width="2" d="M1550.4104545 120.65366477l9.54013585-5.508-12.58-21.78919916-9.54013584 5.508 12.58 21.7891992zm-82.52485188 24.90276364l9.16601287-5.292-5.5-9.5262794-9.5262795 5.5 5.192 8.9928078-9.52627945 5.5-5.192-8.9928078-9.52627944 5.5 5.5 9.52627947 9.16601288-5.292 2.888 5.00216275-5.4178549 3.128 8.976 15.54688805 4.00450145-2.312-2.924-5.06451657 13.0735195-7.548 2.924 5.06451657 4.00450147-2.312-8.976-15.54688805-5.41785493 3.128-2.888-5.00216276z"/>
  </g>
  <g id="steve-nut" transform="rotate(60 820 1589)" fill="none" fill-rule="evenodd">
    <g id="face" mask="url(#facemask)">
      <path fill="#B78471" d="M-29.633975 5.366025h474v474h-474z"/>
      <path fill="#421B0E" d="M262.366025 414.366025h-110v-53h-60v118h230v-118h-60v53z"/>
      <path fill="#6A3D2F" d="M152.366025 308.366025h110v53h-110z"/>
      <path fill="#89473B" d="M152.366025 361.366025h110v53h-110z"/>
      <path fill="#493682" d="M87.853204 240.359573h60.7692308v60.7741935H87.853204zm178.256411 0h60.7692308v60.7741935H266.109615z"/>
      <path fill="#F5F5F5" d="M27.0839737 240.359573H87.853204v60.774194H27.0839737v-60.774194zm299.7948723 0h60.76923v60.774194h-60.76923v-60.774194z"/>
      <path fill="#2B1D0E" d="M384.609615 123.354596H30.1224353v60.011429H-29.633975v-178h474v178h-59.75641v-60.011429z"/>
    </g>
    <use stroke-width="15" stroke="#212121" xlink:href="#nut"/>
  </g>
</svg>
