<svg viewBox="0 0 192 64" preserveAspectRatio="xMidYMid meet" stroke-linejoin="round" version="1.1" xmlns="http://www.w3.org/2000/svg" xmlns:xlink="http://www.w3.org/1999/xlink" xml:space="preserve">
    <g id="icon-cube-bl">
        <path id="bl-cube" d="M164.203,0.011l0.207,0.033l0.202,0.054l0.195,0.075l0.187,0.095l26.005,15l0.176,0.114l0.163,0.131l0.148,0.148l0.132,0.163l0.114,0.176l0.095,0.186l0.075,0.196l0.054,0.202l0.033,0.207l0.011,0.209l-0.011,0.209l-0.024,0.151l0,29.64l-0.011,0.209l-0.033,0.207l-0.054,0.202l-0.075,0.196l-0.095,0.186l-0.114,0.176l-0.132,0.163l-0.148,0.148l-0.163,0.131l-0.176,0.114l-25.762,14.86l-0.031,0.026l-0.176,0.114l-0.186,0.095l-0.196,0.075l-0.202,0.054l-0.207,0.033l-0.209,0.011l-0.018,-0.001l-0.018,0.001l-0.209,-0.011l-0.207,-0.033l-0.202,-0.054l-0.195,-0.075l-0.187,-0.095l-0.175,-0.114l-0.031,-0.026l-25.763,-14.86l-0.176,-0.114l-0.163,-0.131l-0.148,-0.148l-0.132,-0.163l-0.114,-0.176l-0.095,-0.186l-0.075,-0.196l-0.054,-0.202l-0.033,-0.207l-0.011,-0.209l0,-30l0.002,-0.037l-0.001,-0.034l0.006,-0.066l0.004,-0.072l0.006,-0.04l0.004,-0.038l0.012,-0.061l0.011,-0.068l0.011,-0.043l0.008,-0.04l0.018,-0.057l0.017,-0.062l0.017,-0.045l0.014,-0.043l0.022,-0.051l0.022,-0.057l0.024,-0.046l0.019,-0.044l0.027,-0.046l0.025,-0.05l0.03,-0.047l0.026,-0.045l0.03,-0.04l0.028,-0.044l0.038,-0.046l0.032,-0.044l0.031,-0.035l0.031,-0.038l0.045,-0.044l0.039,-0.043l0.032,-0.029l0.032,-0.032l0.052,-0.042l0.047,-0.041l0.032,-0.022l0.032,-0.026l0.06,-0.039l0.053,-0.037l0.031,-0.018l0.032,-0.02l26.005,-15l0.187,-0.095l0.195,-0.075l0.202,-0.054l0.207,-0.033l0.209,-0.011l0.208,0.011ZM165.995,33.155l0,25.362l21.97,-12.672l0,-25.362l-21.97,12.672ZM139.989,45.845l21.971,12.672l0,-25.382l-17.191,-9.915l-4.78,-2.758l0,25.383ZM141.992,17l4.776,2.755l17.209,9.926l22.003,-12.691l-21.985,-12.681l-22.003,12.691ZM158.658,34.464l0,8.544l-1.781,-1.029l0,2.136l1.781,1.028l0,8.544l-14.658,-8.465l0,-19.222l14.658,8.464ZM149.404,45.139l2.982,1.723l0,-4.289l-2.982,-1.723l0,4.289ZM149.338,36.366l2.982,1.645l0,-4.003l-2.982,-1.645l0,4.003ZM176.19,31l0,13.442l8.81,-4.835l0,5.137l-15,8.256l0,-18.579l6.19,-3.421Z" />
    </g>
    <g id="icon-cube-grass">
        <path id="grass-cube" style="fill:#000;" d="M96.209,0.011l0.207,0.033l0.202,0.054l0.195,0.075l0.186,0.095l26.005,15l0.176,0.114l0.163,0.131l0.148,0.148l0.132,0.163l0.114,0.176l0.095,0.186l0.075,0.196l0.054,0.202l0.033,0.207l0.011,0.209l-0.011,0.209l-0.024,0.151l0,29.64l-0.011,0.209l-0.033,0.207l-0.054,0.202l-0.075,0.196l-0.095,0.186l-0.114,0.176l-0.132,0.163l-0.148,0.148l-0.163,0.131l-0.176,0.114l-25.762,14.86l-0.031,0.026l-0.176,0.114l-0.186,0.095l-0.195,0.075l-0.203,0.054l-0.206,0.033l-0.209,0.011l-0.018,-0.001l-0.018,0.001l-0.209,-0.011l-0.207,-0.033l-0.202,-0.054l-0.196,-0.075l-0.186,-0.095l-0.176,-0.114l-0.031,-0.026l-25.762,-14.86l-0.176,-0.114l-0.163,-0.131l-0.148,-0.148l-0.132,-0.163l-0.114,-0.176l-0.095,-0.186l-0.075,-0.196l-0.054,-0.202l-0.033,-0.207l-0.011,-0.209l0,-30l0.002,-0.037l-0.001,-0.034l0.006,-0.066l0.004,-0.072l0.006,-0.04l0.004,-0.038l0.012,-0.061l0.011,-0.068l0.011,-0.043l0.009,-0.04l0.017,-0.057l0.017,-0.062l0.017,-0.045l0.014,-0.043l0.023,-0.051l0.021,-0.057l0.024,-0.046l0.019,-0.044l0.027,-0.046l0.025,-0.05l0.031,-0.047l0.025,-0.045l0.03,-0.04l0.028,-0.044l0.038,-0.046l0.032,-0.044l0.031,-0.035l0.031,-0.038l0.045,-0.044l0.039,-0.043l0.032,-0.029l0.032,-0.032l0.052,-0.042l0.047,-0.041l0.032,-0.022l0.032,-0.026l0.06,-0.039l0.053,-0.037l0.031,-0.018l0.032,-0.02l26.005,-15l0.186,-0.095l0.195,-0.075l0.202,-0.054l0.207,-0.033l0.209,-0.011l0.209,0.011ZM71.995,45.845l21.97,12.672l0,-25.382l-17.19,-9.915l-4.78,-2.757l0,25.382ZM98,33.155l0,25.362l21.97,-12.672l0,-25.362l-21.97,12.672ZM73.998,17l4.776,2.755l17.209,9.926l22.002,-12.691l-21.985,-12.681l-22.002,12.691Z" />
        <path id="grass" style="fill:none;stroke-width:3px;stroke:#000;" d="M70.874,30.317l3.922,2.264l0,-5.661l3.922,2.265l0,6.793l3.922,2.265l0,-3.397l3.923,2.265l0,4.529l3.922,2.264l0,-6.793l4.903,2.83l0,-8.273l-24.514,-14.153l0,12.802ZM96.368,42.772l4.903,-2.831l0,-3.397l3.923,-2.264l0,6.793l3.922,-2.264l0,-3.397l3.922,-2.264l0,-3.397l3.922,-2.265l0,5.662l4.903,-2.831l0,-13.008l-25.781,14.923l0.286,10.54Z" />
    </g>
    <g id="icon-cube-creeper">
        <path id="creeper-cube" d="M28.214,0.011l0.206,0.033l0.202,0.054l0.196,0.075l0.186,0.095l26.005,15l0.176,0.114l0.162,0.131l0.148,0.148l0.132,0.163l0.114,0.176l0.096,0.186l0.075,0.196l0.054,0.202l0.033,0.207l0.011,0.209l-0.011,0.209l-0.024,0.151l0,29.64l-0.011,0.209l-0.033,0.207l-0.054,0.202l-0.075,0.196l-0.095,0.186l-0.115,0.176l-0.131,0.163l-0.148,0.148l-0.163,0.131l-0.176,0.114l-25.762,14.86l-0.031,0.026l-0.176,0.114l-0.186,0.095l-0.196,0.075l-0.202,0.054l-0.206,0.033l-0.209,0.011l-0.019,-0.001l-0.018,0.001l-0.209,-0.011l-0.206,-0.033l-0.203,-0.054l-0.195,-0.075l-0.186,-0.095l-0.176,-0.114l-0.031,-0.026l-25.762,-14.86l-0.176,-0.114l-0.163,-0.131l-0.148,-0.148l-0.132,-0.163l-0.114,-0.176l-0.095,-0.186l-0.075,-0.196l-0.054,-0.202l-0.033,-0.207l-0.011,-0.209l0,-30l0.002,-0.037l-0.001,-0.034l0.006,-0.066l0.004,-0.072l0.006,-0.04l0.004,-0.038l0.012,-0.061l0.011,-0.068l0.011,-0.043l0.008,-0.04l0.018,-0.057l0.017,-0.062l0.017,-0.045l0.014,-0.043l0.022,-0.051l0.022,-0.057l0.023,-0.046l0.02,-0.044l0.026,-0.046l0.026,-0.05l0.03,-0.047l0.026,-0.045l0.029,-0.04l0.029,-0.044l0.038,-0.046l0.032,-0.044l0.031,-0.035l0.031,-0.038l0.045,-0.044l0.039,-0.043l0.032,-0.029l0.032,-0.032l0.052,-0.042l0.046,-0.041l0.033,-0.022l0.032,-0.026l0.06,-0.039l0.052,-0.037l0.032,-0.018l0.032,-0.02l26.004,-15l0.187,-0.095l0.195,-0.075l0.202,-0.054l0.207,-0.033l0.209,-0.011l0.209,0.011ZM4,45.845l21.97,12.672l0,-25.382l-17.19,-9.915l-4.78,-2.757l0,25.382ZM30.005,33.155l0,25.362l21.97,-12.672l0,-25.362l-21.97,12.672ZM6.003,17l4.776,2.755l17.208,9.926l22.002,-12.691l-21.984,-12.681l-22.002,12.691ZM32.554,34.858l5.889,-3.4l0,5.776l5.714,-3.414l0,-5.661l5.889,-3.4l0,5.661l-5.831,3.367l0,5.661l2.916,-1.683l0,7.882l-2.974,1.761l0,-3.478l-2.857,1.73l-2.857,1.65l0,3.511l-2.974,1.529l0,-8.907l2.915,-1.713l0,-4.53l-5.83,3.547l0,-5.889Z" />
    </g>
</svg>
