<svg xmlns="http://www.w3.org/2000/svg" style="display:none;">
  <symbol id="icon-cube-creeper" viewBox="0 0 345 375" preserveAspectRatio="xMidYMid meet" stroke-linejoin="round">
    <g transform="translate(-54.000000, 14.000000)" fill="none" fill-rule="evenodd">
      <path stroke="#795548" stroke-width="27.2" transform="translate(67.941176, 0.000000)" d="M160 347.3L0 267.8 0 83.8 160 163.3 317.1 79.8 317.1 263.8 160 347.3ZM160 163.3L0 83.8 158.5 0.2 317.1 79.8 160 163.3ZM160 347.3L160 163.3"/>
      <path fill="#795548" transform="translate(67.941176, 0.000000)" d="M261.7 201.7C263.5 200.9 265.5 200.4 267.6 200.4 275.1 200.4 281.2 206.5 281.2 214L281.2 243C281.2 250.5 275.1 256.6 267.6 256.6 260.1 256.6 254 250.5 254 243L254 241.5C252.3 242.2 250.5 242.6 248.5 242.6 247.7 242.6 247 242.5 246.2 242.4L246.2 263C246.2 270.5 240.1 276.6 232.6 276.6 225.1 276.6 219 270.5 219 263L219 234C219 226.5 225.1 220.4 232.6 220.4 233.4 220.4 234.2 220.5 234.9 220.6L234.9 205C234.9 197.5 241 191.4 248.5 191.4 254.9 191.4 260.3 195.8 261.7 201.7L261.7 201.7ZM219.6 200L219.6 180C219.6 172.5 213.5 166.4 206 166.4 198.5 166.4 192.4 172.5 192.4 180L192.4 200C192.4 207.5 198.5 213.6 206 213.6 213.5 213.6 219.6 207.5 219.6 200ZM284.6 164L284.6 144C284.6 136.5 278.5 130.4 271 130.4 263.5 130.4 257.4 136.5 257.4 144L257.4 164C257.4 171.5 263.5 177.6 271 177.6 278.5 177.6 284.6 171.5 284.6 164Z"/>
    </g>
  </symbol>
  <symbol id="icon-cube-grass" viewBox="0 0 355 385" preserveAspectRatio="xMidYMid meet" stroke-linejoin="round">
    <path stroke="#795548" stroke-width="27.9" fill="none" fill-rule="evenodd" d="M179.5 370.8l-164.6-81.7V100.1l164.6 81.7L341 96V285l-161.5 85.8zM179.5 181.8L14.9 100.1l163.1-85.8L341 96 179.5 181.8zM341 167.1l-27.7 22.3h-27.7l-28 31.7-23.7-11-26.1 37.5h-28.5L151.5 230.4l-24 7.5-24.5-30.5-26.7 4.1-20.4-30.7-19.6 17.8-21.3-27.1m164.6 199.6V181.8"/>
  </symbol>
  <symbol id="icon-cube-bl" viewBox="0 0 354 385" preserveAspectRatio="xMidYMid meet" stroke-linejoin="round">
    <g fill="#ffffff" fill-rule="evenodd" transform="translate(-57.000000, 14.000000) translate(70.767442, 0.000000)">
      <path stroke="#795548" stroke-width="27.9" d="M164.8 356.8L0.5 275.1 0.5 86.1 164.8 167.8 326.1 82 326.1 271 164.8 356.8ZM164.8 167.8L0.5 86.1 163.3 0.2 326.1 82 164.8 167.8ZM164.8 356.8L164.8 167.8"/>
      <path fill="#795548" d="M122.1 241.6L112.8 237 112.8 242 122.1 246.6 122.1 297 40.6 257.3 40.6 150.7 122.1 191 122.1 241.6 122.1 241.6ZM86.8 251.4L86.8 241.3 75.8 235.9 75.8 246 86.8 251.4 86.8 251.4ZM86.8 212L86.8 202 75.8 196.6 75.8 206.6 86.8 212 86.8 212Z" />
      <path fill="#795548" d="M242.2 245.1L287.9 221.5 287.9 249 208.2 290.9 208.2 184.3 242.2 167.4 242.2 245.1Z" />
    </g>
  </symbol>
</svg>
